<?xml version="1.0" encoding="UTF-8"?>
<svg width="140px" height="68px" viewBox="0 0 140 68" version="1.1" xmlns="http://www.w3.org/2000/svg" xmlns:xlink="http://www.w3.org/1999/xlink">
    <title>Logo</title>
    <defs>
        <polygon id="path-1" points="0.528048387 0.413903226 40.485629 0.413903226 40.485629 50.8064516 0.528048387 50.8064516"></polygon>
    </defs>
    <g id="Logo" stroke="none" stroke-width="1" fill="none" fill-rule="evenodd">
        <g transform="translate(0.000000, 1.000000)">
            <path d="M33.9725806,39.3435 C33.9725806,42.7644677 32.55,45.5418871 29.6709677,47.6757581 C26.8258065,49.809629 22.6596774,50.8935 17.2064516,50.8935 C9.11129032,50.8935 3.38709677,48.827371 0,44.6951129 L6.23225806,37.9209194 C8.23064516,41.2402742 11.7193548,42.9338226 16.6306452,42.9338226 C18.2903226,42.9338226 19.5774194,42.6967258 20.5258065,42.2564032 C21.4741935,41.8160806 21.9483871,41.2064032 21.9483871,40.4612419 C21.9483871,39.7838226 21.4403226,39.2080161 20.4919355,38.7338226 C19.5096774,38.2257581 17.883871,37.7515645 15.5129032,37.277371 C10.2629032,36.2612419 6.50322581,34.8386613 4.26774194,33.0435 C2.03225806,31.2822097 0.914516129,28.9112419 0.914516129,25.9305968 C0.914516129,23.9322097 1.55806452,22.0015645 2.84516129,20.2402742 C4.0983871,18.4451129 6.02903226,16.9886613 8.56935484,15.9047903 C11.1435484,14.7870484 14.2596774,14.2451129 17.9177419,14.2451129 C20.7290323,14.2451129 23.1677419,14.5160806 25.2677419,15.0241452 L18.0870968,22.2047903 C16.4612903,22.2386613 15.2419355,22.509629 14.3274194,22.9838226 C13.3790323,23.4918871 12.9048387,24.1354355 12.9048387,24.8805968 C12.9048387,25.5918871 13.3790323,26.1676935 14.3612903,26.6757581 C15.3096774,27.1838226 17.0032258,27.6580161 19.4080645,28.1322097 C24.5564516,29.0128548 28.2822581,30.3338226 30.5516129,32.0951129 C32.8548387,33.8564032 33.9725806,36.2612419 33.9725806,39.3435" id="Fill-1" fill="#323232"></path>
            <path d="M23.0996613,23.0176935 L29.3996613,16.7176935 C31.2625645,17.7338226 32.7867581,19.1225323 34.0399839,20.8499516 L27.8415968,26.9128548 C26.7238548,25.2870484 25.3690161,24.0676935 23.8448226,23.3225323 C23.6077258,23.2209194 23.370629,23.1193065 23.0996613,23.0176935" id="Fill-3" fill="#A7A7A7"></path>
            <path d="M49.841129,29.5320968 L63.0914516,29.5320968 C62.5258065,24.9256452 60.3648387,22.6224194 56.6051613,22.6224194 C52.8014516,22.6224194 50.5456452,24.9256452 49.841129,29.5320968 M73.9403226,36.0116129 L49.908871,36.0116129 C50.2848387,38.22 51.0977419,39.8458065 52.3408065,40.8754839 C53.5872581,41.9085484 55.2435484,42.4267742 57.3130645,42.4267742 C59.0506452,42.4267742 60.4732258,42.0982258 61.5774194,41.4377419 C62.6782258,40.7840323 63.4166129,39.8220968 63.7959677,38.5485484 L73.5169355,41.651129 C72.5346774,44.6622581 70.6175806,46.9519355 67.7758065,48.5235484 C64.9340323,50.0985484 61.4453226,50.8843548 57.3130645,50.8843548 C51.1553226,50.8843548 46.4472581,49.2856452 43.1787097,46.0916129 C39.9135484,42.8941935 38.2809677,38.3893548 38.2809677,32.5601613 C38.2809677,26.7343548 39.8796774,22.226129 43.0737097,19.0320968 C46.2677419,15.8346774 50.8030645,14.2359677 56.6762903,14.2359677 C62.3632258,14.2359677 66.7190323,15.8008065 69.7504839,18.9203226 C72.7819355,22.0466129 74.2959677,26.4295161 74.2959677,32.0656452 C74.2959677,33.6677419 74.1841935,34.9819355 73.9403226,36.0116129" id="Fill-5" fill="#323232"></path>
            <path d="M92.8345645,37.9862903 C92.8345645,39.585 93.0682742,40.7095161 93.5390806,41.37 C94.0098871,42.0304839 94.8532742,42.3556452 96.0760161,42.3556452 C97.2039194,42.3556452 98.4029516,42.1456452 99.6697258,41.718871 L98.8974677,49.1230645 C98.0473065,49.6412903 96.9465,50.0646774 95.5815,50.3932258 C94.2165,50.7183871 92.8819839,50.8843548 91.5677903,50.8843548 C87.8047258,50.8843548 85.0815,50.0037097 83.3879516,48.2424194 C81.6977903,46.481129 80.8544032,43.646129 80.8544032,39.7475806 L80.8544032,-3.55271368e-15 L92.8345645,-3.55271368e-15 L92.8345645,37.9862903 Z" id="Fill-7" fill="#323232"></path>
            <g id="Group-11" transform="translate(98.225806, 14.526581)">
                <mask id="mask-2" fill="white">
                    <use xlink:href="#path-1"></use>
                </mask>
                <g id="Clip-10"></g>
                <path d="M27.5875645,35.6532581 C26.273371,39.4095484 24.840629,42.3935806 23.2927258,44.6053548 C21.7414355,46.8137419 19.9090161,48.3989032 17.7920806,49.3608387 C15.6819194,50.3261613 13.1178871,50.807129 10.1101452,50.807129 C6.12014516,50.807129 2.9261129,49.9332581 0.528048387,48.1956774 L3.06159677,40.1614839 C3.81353226,40.866 4.65014516,41.3469677 5.56466129,41.6077742 C6.48256452,41.8651935 7.66804839,41.9972903 9.1245,41.9972903 C10.5809516,41.9972903 11.7359516,41.7500323 12.5793387,41.2555161 C13.4261129,40.7643871 14.1035323,39.8803548 14.618371,38.6135806 L15.4685323,36.4289032 L11.3803065,26.8434194 L0.876919355,0.413903226 L14.0561129,0.413903226 L19.4822419,20.4993871 L21.1757903,27.9747097 L23.0793387,20.2182581 L28.5054677,0.413903226 L40.485629,0.413903226 L27.5875645,35.6532581 Z" id="Fill-9" fill="#323232" mask="url(#mask-2)"></path>
            </g>
        </g>
    </g>
</svg>